<svg width="20" height="20" viewBox="0 0 20 20" fill="none" xmlns="http://www.w3.org/2000/svg">
<path d="M20 10.0611C20 4.50451 15.5229 0 10 0C4.47715 0 0 4.50451 0 10.0611C0 15.0828 3.65684 19.2452 8.4375 20V12.9694H5.89844V10.0611H8.4375V7.84452C8.4375 5.32296 9.93047 3.93012 12.2146 3.93012C13.3084 3.93012 14.4531 4.12663 14.4531 4.12663V6.60261H13.1922C11.95 6.60261 11.5625 7.37822 11.5625 8.17465V10.0611H14.3359L13.8926 12.9694H11.5625V20C16.3432 19.2452 20 15.0828 20 10.0611Z" fill="#1877F2"/>
<path d="M13.8926 12.8906L14.3359 10H11.5625V8.125C11.5625 7.33418 11.95 6.5625 13.1922 6.5625H14.4531V4.10156C14.4531 4.10156 13.3088 3.90625 12.2146 3.90625C9.93047 3.90625 8.4375 5.29063 8.4375 7.79688V10H5.89844V12.8906H8.4375V19.8785C9.47287 20.0405 10.5271 20.0405 11.5625 19.8785V12.8906H13.8926Z" fill="white"/>
</svg>
