<svg width="20" height="20" viewBox="0 0 20 20" fill="none" xmlns="http://www.w3.org/2000/svg">
<path d="M10.0005 0.00195993C4.59652 -0.104592 0.124851 4.18077 0.00146484 9.58434C0.015565 12.335 1.23353 14.9415 3.33446 16.717V19.5834C3.33446 19.8135 3.521 20 3.7511 20C3.82918 20 3.90569 19.978 3.9719 19.9367L6.29417 18.486C7.47734 18.9385 8.73374 19.1693 10.0005 19.1668C15.4045 19.2733 19.8761 14.988 19.9995 9.58438C19.8761 4.18077 15.4045 -0.104592 10.0005 0.00195993Z" fill="#2196F3"/>
<path d="M16.5829 6.8346C16.4589 6.66845 16.2316 6.61873 16.0496 6.71794L11.7167 9.0802L9.02113 6.76875C8.85584 6.62705 8.6093 6.63646 8.45537 6.79043L3.45586 11.7899C3.29365 11.9531 3.29443 12.2169 3.45766 12.3791C3.58815 12.5089 3.78825 12.5376 3.94999 12.4499L8.28289 10.0876L10.9809 12.3999C11.1462 12.5416 11.3928 12.5322 11.5467 12.3782L16.5462 7.37869C16.6919 7.23164 16.7075 6.9999 16.5829 6.8346Z" fill="#FAFAFA"/>
</svg>
