<svg width="20" height="20" viewBox="0 0 20 20" fill="none" xmlns="http://www.w3.org/2000/svg">
<path d="M6.2896 18.1256C13.8368 18.1256 17.9648 11.8728 17.9648 6.45041C17.9648 6.27281 17.9648 6.09601 17.9528 5.92001C18.7559 5.33914 19.4491 4.61992 20 3.79601C19.2512 4.12801 18.4567 4.34564 17.6432 4.44161C18.4998 3.92885 19.141 3.12227 19.4472 2.17201C18.6417 2.65002 17.7605 2.98687 16.8416 3.16801C16.2229 2.51016 15.4047 2.07455 14.5135 1.92858C13.6223 1.78262 12.7078 1.93444 11.9116 2.36056C11.1154 2.78667 10.4819 3.46332 10.109 4.2858C9.73605 5.10828 9.64462 6.03073 9.8488 6.91041C8.21741 6.82858 6.62146 6.40461 5.16455 5.66602C3.70763 4.92743 2.4223 3.89073 1.392 2.62321C0.867274 3.52654 0.70656 4.5959 0.942583 5.61357C1.17861 6.63123 1.79362 7.52068 2.6624 8.10081C2.00936 8.08168 1.37054 7.90551 0.8 7.58721V7.63921C0.800259 8.58659 1.12821 9.50471 1.72823 10.2379C2.32824 10.971 3.16338 11.474 4.092 11.6616C3.4879 11.8264 2.85406 11.8505 2.2392 11.732C2.50151 12.5473 3.01202 13.2602 3.69937 13.7711C4.38671 14.282 5.21652 14.5654 6.0728 14.5816C5.22203 15.2503 4.24776 15.7448 3.20573 16.0366C2.16369 16.3285 1.07435 16.412 0 16.2824C1.87653 17.4866 4.05994 18.1253 6.2896 18.1224" fill="#1DA1F2"/>
</svg>
