<svg width="20" height="20" viewBox="0 0 20 20" fill="none" xmlns="http://www.w3.org/2000/svg">
<path d="M13.3334 1.66667H6.66675C6.00371 1.66667 5.36783 1.93006 4.89899 2.3989C4.43015 2.86775 4.16675 3.50363 4.16675 4.16667V17.5C4.16617 17.6468 4.2044 17.7912 4.27757 17.9186C4.35074 18.0459 4.45625 18.1516 4.58342 18.225C4.7101 18.2981 4.85381 18.3367 5.00009 18.3367C5.14637 18.3367 5.29007 18.2981 5.41675 18.225L10.0001 15.575L14.5834 18.225C14.7104 18.297 14.8541 18.3343 15.0001 18.3333C15.1461 18.3343 15.2898 18.297 15.4168 18.225C15.5439 18.1516 15.6494 18.0459 15.7226 17.9186C15.7958 17.7912 15.834 17.6468 15.8334 17.5V4.16667C15.8334 3.50363 15.57 2.86775 15.1012 2.3989C14.6323 1.93006 13.9965 1.66667 13.3334 1.66667ZM14.1668 16.0583L10.4168 13.8917C10.2901 13.8185 10.1464 13.78 10.0001 13.78C9.85381 13.78 9.7101 13.8185 9.58342 13.8917L5.83342 16.0583V4.16667C5.83342 3.94566 5.92122 3.7337 6.0775 3.57742C6.23378 3.42114 6.44574 3.33334 6.66675 3.33334H13.3334C13.5544 3.33334 13.7664 3.42114 13.9227 3.57742C14.079 3.7337 14.1668 3.94566 14.1668 4.16667V16.0583Z" fill="#191632"/>
</svg>
