<svg width="20" height="20" viewBox="0 0 20 20" fill="none" xmlns="http://www.w3.org/2000/svg">
<path fill-rule="evenodd" clip-rule="evenodd" d="M4.16675 4.16668C3.70651 4.16668 3.33341 4.53977 3.33341 5.00001V16.6667C3.33341 17.1269 3.70651 17.5 4.16675 17.5H15.8334C16.2937 17.5 16.6667 17.1269 16.6667 16.6667V5.00001C16.6667 4.53977 16.2937 4.16668 15.8334 4.16668H4.16675ZM1.66675 5.00001C1.66675 3.6193 2.78604 2.50001 4.16675 2.50001H15.8334C17.2141 2.50001 18.3334 3.6193 18.3334 5.00001V16.6667C18.3334 18.0474 17.2141 19.1667 15.8334 19.1667H4.16675C2.78604 19.1667 1.66675 18.0474 1.66675 16.6667V5.00001Z" fill="#191632"/>
<path fill-rule="evenodd" clip-rule="evenodd" d="M13.3334 0.833344C13.7937 0.833344 14.1667 1.20644 14.1667 1.66668V5.00001C14.1667 5.46025 13.7937 5.83334 13.3334 5.83334C12.8732 5.83334 12.5001 5.46025 12.5001 5.00001V1.66668C12.5001 1.20644 12.8732 0.833344 13.3334 0.833344Z" fill="#191632"/>
<path fill-rule="evenodd" clip-rule="evenodd" d="M6.66675 0.833344C7.12699 0.833344 7.50008 1.20644 7.50008 1.66668V5.00001C7.50008 5.46025 7.12699 5.83334 6.66675 5.83334C6.20651 5.83334 5.83342 5.46025 5.83342 5.00001V1.66668C5.83342 1.20644 6.20651 0.833344 6.66675 0.833344Z" fill="#191632"/>
<path fill-rule="evenodd" clip-rule="evenodd" d="M1.66675 8.33334C1.66675 7.87311 2.03984 7.50001 2.50008 7.50001H17.5001C17.9603 7.50001 18.3334 7.87311 18.3334 8.33334C18.3334 8.79358 17.9603 9.16668 17.5001 9.16668H2.50008C2.03984 9.16668 1.66675 8.79358 1.66675 8.33334Z" fill="#191632"/>
</svg>
