<svg width="20" height="20" viewBox="0 0 20 20" fill="none" xmlns="http://www.w3.org/2000/svg">
<path fill-rule="evenodd" clip-rule="evenodd" d="M17.256 4.41074C17.5814 4.73617 17.5814 5.26381 17.256 5.58925L8.0893 14.7559C7.76387 15.0814 7.23623 15.0814 6.91079 14.7559L2.74413 10.5892C2.41869 10.2638 2.41869 9.73617 2.74413 9.41074C3.06956 9.0853 3.5972 9.0853 3.92264 9.41074L7.50005 12.9881L16.0775 4.41074C16.4029 4.0853 16.9305 4.0853 17.256 4.41074Z" fill="#191632"/>
<path fill-rule="evenodd" clip-rule="evenodd" d="M17.3974 4.26932C17.8009 4.67286 17.8009 5.32713 17.3974 5.73067L8.23073 14.8973C7.82718 15.3009 7.17291 15.3009 6.76937 14.8973L2.60271 10.7307C2.19916 10.3271 2.19916 9.67286 2.60271 9.26932C3.00625 8.86577 3.66052 8.86577 4.06406 9.26932L7.50005 12.7053L15.936 4.26932C16.3396 3.86577 16.9938 3.86577 17.3974 4.26932ZM7.50005 12.9881L3.92264 9.41074C3.5972 9.0853 3.06956 9.0853 2.74413 9.41074C2.41869 9.73617 2.41869 10.2638 2.74413 10.5892L6.91079 14.7559C7.23623 15.0814 7.76387 15.0814 8.0893 14.7559L17.256 5.58925C17.5814 5.26381 17.5814 4.73617 17.256 4.41074C16.9305 4.0853 16.4029 4.0853 16.0775 4.41074L7.50005 12.9881Z" fill="#191632"/>
</svg>
