<svg width="20" height="20" viewBox="0 0 20 20" fill="none" xmlns="http://www.w3.org/2000/svg">
<path fill-rule="evenodd" clip-rule="evenodd" d="M15.5893 4.41074C15.9148 4.73618 15.9148 5.26382 15.5893 5.58925L5.58934 15.5893C5.2639 15.9147 4.73626 15.9147 4.41083 15.5893C4.08539 15.2638 4.08539 14.7362 4.41083 14.4107L14.4108 4.41074C14.7363 4.0853 15.2639 4.0853 15.5893 4.41074Z" fill="#191632"/>
<path fill-rule="evenodd" clip-rule="evenodd" d="M4.41083 4.41074C4.73626 4.0853 5.2639 4.0853 5.58934 4.41074L15.5893 14.4107C15.9148 14.7362 15.9148 15.2638 15.5893 15.5893C15.2639 15.9147 14.7363 15.9147 14.4108 15.5893L4.41083 5.58925C4.08539 5.26382 4.08539 4.73618 4.41083 4.41074Z" fill="#191632"/>
</svg>
