<svg width="20" height="20" viewBox="0 0 20 20" fill="none" xmlns="http://www.w3.org/2000/svg">
<path d="M9.99989 1.66667C8.90554 1.66667 7.82191 1.88222 6.81086 2.30101C5.79981 2.7198 4.88115 3.33363 4.10733 4.10745C2.54453 5.67025 1.66656 7.78987 1.66656 10C1.65927 11.9243 2.32555 13.7905 3.54989 15.275L1.88322 16.9417C1.76759 17.0589 1.68926 17.2077 1.65812 17.3693C1.62697 17.531 1.64441 17.6982 1.70822 17.85C1.77744 17.9999 1.88964 18.1259 2.03059 18.212C2.17155 18.298 2.33489 18.3403 2.49989 18.3333H9.99989C12.21 18.3333 14.3296 17.4554 15.8924 15.8926C17.4552 14.3298 18.3332 12.2101 18.3332 10C18.3332 7.78987 17.4552 5.67025 15.8924 4.10745C14.3296 2.54465 12.21 1.66667 9.99989 1.66667ZM9.99989 16.6667H4.50822L5.28322 15.8917C5.43843 15.7355 5.52555 15.5243 5.52555 15.3042C5.52555 15.084 5.43843 14.8728 5.28322 14.7167C4.19204 13.6267 3.51253 12.1921 3.36046 10.6573C3.20839 9.12255 3.59317 7.58251 4.44924 6.29961C5.30531 5.0167 6.57971 4.0703 8.05532 3.62165C9.53092 3.17299 11.1164 3.24984 12.5417 3.8391C13.967 4.42836 15.1439 5.49357 15.8719 6.85325C16.5999 8.21293 16.8339 9.78296 16.5342 11.2958C16.2344 12.8087 15.4193 14.1709 14.2278 15.1502C13.0364 16.1295 11.5422 16.6655 9.99989 16.6667Z" fill="#191632"/>
</svg>
