<svg width="20" height="20" viewBox="0 0 20 20" fill="none" xmlns="http://www.w3.org/2000/svg">
<path d="M7.49992 8.33334H8.33325C8.55427 8.33334 8.76623 8.24554 8.92251 8.08926C9.07879 7.93298 9.16658 7.72102 9.16658 7.50001C9.16658 7.27899 9.07879 7.06703 8.92251 6.91075C8.76623 6.75447 8.55427 6.66667 8.33325 6.66667H7.49992C7.2789 6.66667 7.06694 6.75447 6.91066 6.91075C6.75438 7.06703 6.66658 7.27899 6.66658 7.50001C6.66658 7.72102 6.75438 7.93298 6.91066 8.08926C7.06694 8.24554 7.2789 8.33334 7.49992 8.33334ZM7.49992 10C7.2789 10 7.06694 10.0878 6.91066 10.2441C6.75438 10.4004 6.66658 10.6123 6.66658 10.8333C6.66658 11.0544 6.75438 11.2663 6.91066 11.4226C7.06694 11.5789 7.2789 11.6667 7.49992 11.6667H12.4999C12.7209 11.6667 12.9329 11.5789 13.0892 11.4226C13.2455 11.2663 13.3333 11.0544 13.3333 10.8333C13.3333 10.6123 13.2455 10.4004 13.0892 10.2441C12.9329 10.0878 12.7209 10 12.4999 10H7.49992ZM16.6666 7.45001C16.6579 7.37345 16.6411 7.29803 16.6166 7.22501V7.15001C16.5765 7.06432 16.5231 6.98556 16.4583 6.91667L11.4583 1.91667C11.3894 1.85185 11.3106 1.79841 11.2249 1.75834C11.2 1.75481 11.1748 1.75481 11.1499 1.75834C11.0653 1.70979 10.9718 1.67863 10.8749 1.66667H5.83325C5.17021 1.66667 4.53433 1.93006 4.06549 2.3989C3.59664 2.86775 3.33325 3.50363 3.33325 4.16667V15.8333C3.33325 16.4964 3.59664 17.1323 4.06549 17.6011C4.53433 18.0699 5.17021 18.3333 5.83325 18.3333H14.1666C14.8296 18.3333 15.4655 18.0699 15.9344 17.6011C16.4032 17.1323 16.6666 16.4964 16.6666 15.8333V7.50001C16.6666 7.50001 16.6666 7.50001 16.6666 7.45001ZM11.6666 4.50834L13.8249 6.66667H12.4999C12.2789 6.66667 12.0669 6.57887 11.9107 6.42259C11.7544 6.26631 11.6666 6.05435 11.6666 5.83334V4.50834ZM14.9999 15.8333C14.9999 16.0544 14.9121 16.2663 14.7558 16.4226C14.5996 16.5789 14.3876 16.6667 14.1666 16.6667H5.83325C5.61224 16.6667 5.40028 16.5789 5.244 16.4226C5.08772 16.2663 4.99992 16.0544 4.99992 15.8333V4.16667C4.99992 3.94566 5.08772 3.7337 5.244 3.57742C5.40028 3.42114 5.61224 3.33334 5.83325 3.33334H9.99992V5.83334C9.99992 6.49638 10.2633 7.13227 10.7322 7.60111C11.201 8.06995 11.8369 8.33334 12.4999 8.33334H14.9999V15.8333ZM12.4999 13.3333H7.49992C7.2789 13.3333 7.06694 13.4211 6.91066 13.5774C6.75438 13.7337 6.66658 13.9457 6.66658 14.1667C6.66658 14.3877 6.75438 14.5996 6.91066 14.7559C7.06694 14.9122 7.2789 15 7.49992 15H12.4999C12.7209 15 12.9329 14.9122 13.0892 14.7559C13.2455 14.5996 13.3333 14.3877 13.3333 14.1667C13.3333 13.9457 13.2455 13.7337 13.0892 13.5774C12.9329 13.4211 12.7209 13.3333 12.4999 13.3333Z" fill="#191632"/>
</svg>
