<svg width="20" height="20" viewBox="0 0 20 20" fill="none" xmlns="http://www.w3.org/2000/svg">
<path d="M10.0001 1.66666C7.86374 1.67275 5.81132 2.49908 4.26675 3.97499V2.49999C4.26675 2.27898 4.17895 2.06701 4.02267 1.91073C3.86639 1.75445 3.65443 1.66666 3.43341 1.66666C3.2124 1.66666 3.00044 1.75445 2.84416 1.91073C2.68788 2.06701 2.60008 2.27898 2.60008 2.49999V6.24999C2.60008 6.471 2.68788 6.68297 2.84416 6.83925C3.00044 6.99553 3.2124 7.08332 3.43341 7.08332H7.18341C7.40443 7.08332 7.61639 6.99553 7.77267 6.83925C7.92895 6.68297 8.01675 6.471 8.01675 6.24999C8.01675 6.02898 7.92895 5.81701 7.77267 5.66073C7.61639 5.50445 7.40443 5.41666 7.18341 5.41666H5.18341C6.2549 4.29696 7.683 3.58554 9.22219 3.40471C10.7614 3.22389 12.3155 3.58497 13.6173 4.42586C14.9191 5.26675 15.8873 6.53492 16.3554 8.01232C16.8234 9.48971 16.7622 11.084 16.1821 12.5212C15.602 13.9583 14.5394 15.1484 13.1769 15.8869C11.8144 16.6254 10.2372 16.8662 8.71638 16.5678C7.1956 16.2694 5.8263 15.4504 4.84391 14.2518C3.86151 13.0532 3.3274 11.5498 3.33341 9.99999C3.33341 9.77898 3.24562 9.56702 3.08934 9.41073C2.93306 9.25445 2.7211 9.16666 2.50008 9.16666C2.27907 9.16666 2.06711 9.25445 1.91083 9.41073C1.75455 9.56702 1.66675 9.77898 1.66675 9.99999C1.66675 11.6482 2.15549 13.2593 3.07117 14.6297C3.98685 16.0002 5.28834 17.0683 6.81105 17.699C8.33377 18.3297 10.0093 18.4947 11.6258 18.1732C13.2423 17.8517 14.7272 17.058 15.8926 15.8925C17.0581 14.7271 17.8517 13.2423 18.1733 11.6257C18.4948 10.0092 18.3298 8.33368 17.6991 6.81096C17.0683 5.28824 16.0002 3.98675 14.6298 3.07108C13.2594 2.1554 11.6483 1.66666 10.0001 1.66666ZM10.0001 6.66666C9.77907 6.66666 9.56711 6.75445 9.41083 6.91073C9.25455 7.06701 9.16675 7.27898 9.16675 7.49999V9.99999C9.16675 10.221 9.25455 10.433 9.41083 10.5892C9.56711 10.7455 9.77907 10.8333 10.0001 10.8333H11.6667C11.8878 10.8333 12.0997 10.7455 12.256 10.5892C12.4123 10.433 12.5001 10.221 12.5001 9.99999C12.5001 9.77898 12.4123 9.56702 12.256 9.41073C12.0997 9.25445 11.8878 9.16666 11.6667 9.16666H10.8334V7.49999C10.8334 7.27898 10.7456 7.06701 10.5893 6.91073C10.4331 6.75445 10.2211 6.66666 10.0001 6.66666Z" fill="#191632"/>
</svg>
