<svg width="20" height="20" viewBox="0 0 20 20" fill="none" xmlns="http://www.w3.org/2000/svg">
<path fill-rule="evenodd" clip-rule="evenodd" d="M0.921412 13.794C1.12724 13.3823 1.6278 13.2155 2.03945 13.4213L10.0001 17.4016L17.9608 13.4213C18.3724 13.2155 18.873 13.3823 19.0788 13.794C19.2846 14.2056 19.1178 14.7062 18.7061 14.912L10.3728 19.0787C10.1382 19.196 9.86203 19.196 9.62742 19.0787L1.29409 14.912C0.882441 14.7062 0.715587 14.2056 0.921412 13.794Z" fill="#191632"/>
<path fill-rule="evenodd" clip-rule="evenodd" d="M0.921412 9.62732C1.12724 9.21567 1.6278 9.04882 2.03945 9.25464L10.0001 13.235L17.9608 9.25464C18.3724 9.04882 18.873 9.21567 19.0788 9.62732C19.2846 10.039 19.1178 10.5395 18.7061 10.7454L10.3728 14.912C10.1382 15.0293 9.86203 15.0293 9.62742 14.912L1.29409 10.7454C0.882441 10.5395 0.715587 10.039 0.921412 9.62732Z" fill="#191632"/>
<path fill-rule="evenodd" clip-rule="evenodd" d="M9.62746 0.921306C9.86207 0.804002 10.1382 0.804002 10.3728 0.921306L18.7062 5.08797C18.9885 5.22913 19.1668 5.51769 19.1668 5.83333C19.1668 6.14897 18.9885 6.43753 18.7062 6.57869L10.3728 10.7454C10.1382 10.8627 9.86207 10.8627 9.62746 10.7454L1.29413 6.57869C1.01181 6.43753 0.833475 6.14897 0.833475 5.83333C0.833475 5.51769 1.01181 5.22913 1.29413 5.08797L9.62746 0.921306ZM3.5302 5.83333L10.0001 9.0683L16.4701 5.83333L10.0001 2.59836L3.5302 5.83333Z" fill="#191632"/>
</svg>
