<svg width="20" height="20" viewBox="0 0 20 20" fill="none" xmlns="http://www.w3.org/2000/svg">
<path fill-rule="evenodd" clip-rule="evenodd" d="M4.1665 3.33332C3.94549 3.33332 3.73353 3.42112 3.57725 3.5774C3.42097 3.73368 3.33317 3.94564 3.33317 4.16666V15.4881L5.24392 13.5774C5.4002 13.4211 5.61216 13.3333 5.83317 13.3333H15.8332C16.0542 13.3333 16.2661 13.2455 16.4224 13.0892C16.5787 12.933 16.6665 12.721 16.6665 12.5V4.16666C16.6665 3.94564 16.5787 3.73368 16.4224 3.5774C16.2661 3.42112 16.0542 3.33332 15.8332 3.33332H4.1665ZM2.39874 2.39889C2.86758 1.93005 3.50346 1.66666 4.1665 1.66666H15.8332C16.4962 1.66666 17.1321 1.93005 17.6009 2.39889C18.0698 2.86773 18.3332 3.50362 18.3332 4.16666V12.5C18.3332 13.163 18.0698 13.7989 17.6009 14.2678C17.1321 14.7366 16.4962 15 15.8332 15H6.17835L3.08909 18.0892C2.85076 18.3276 2.49233 18.3989 2.18093 18.2699C1.86954 18.1409 1.6665 17.837 1.6665 17.5V4.16666C1.6665 3.50362 1.9299 2.86773 2.39874 2.39889Z" fill="#191632"/>
</svg>
