<svg width="19" height="20" viewBox="0 0 19 20" fill="none" xmlns="http://www.w3.org/2000/svg">
<path d="M16.0302 12.6796L16.0306 12.68L16.6468 13.203C16.6468 13.203 16.6469 13.2031 16.6469 13.2031C16.9703 13.475 17.3244 13.8004 17.6015 14.1732C17.8788 14.5461 18.084 14.9729 18.0991 15.4464C18.117 16.0073 17.8711 16.5153 17.3862 16.9539C17.2729 17.0594 15.9245 18.2935 14.3023 18.8384C13.8043 19.0056 13.3205 19.0941 12.8644 19.0995C12.8644 19.0995 12.8644 19.0995 12.8644 19.0995L12.8632 18.9995C10.2744 19.0311 7.55231 17.4607 4.77247 14.3321L16.0302 12.6796ZM16.0302 12.6796C15.477 12.2153 14.8365 11.7247 14.1734 11.4036C13.511 11.0828 12.8119 10.9243 12.1498 11.1467C11.9043 11.2291 11.6795 11.3608 11.4764 11.5419L11.4755 11.5427L10.9078 12.0606C10.9077 12.0608 10.9075 12.0609 10.9073 12.0611C10.8526 12.1098 10.8014 12.1613 10.7498 12.2132L10.7498 12.2132C10.6042 12.3597 10.4595 12.5025 10.2851 12.561C10.079 12.6303 9.78613 12.5741 9.40916 12.3582C9.03605 12.1444 8.59991 11.7851 8.11922 11.2863C7.17614 10.3076 7.0156 9.7101 7.02789 9.40149C7.0413 9.06537 7.26949 8.83988 7.56484 8.59357L7.56488 8.59353C7.60552 8.5596 7.64335 8.52792 7.67989 8.49558L7.6805 8.49503L8.25803 7.97524L16.0302 12.6796ZM4.52215 2.56172C4.50313 2.57795 2.57234 4.25528 2.36573 5.94645L4.52215 2.56172ZM4.52215 2.56172L4.53352 2.55175M4.52215 2.56172L4.53352 2.55175M4.53352 2.55175C4.6426 2.45381 4.74755 2.38621 4.83695 2.35618C5.11206 2.26377 5.51624 2.61294 6.03527 3.38908M4.53352 2.55175L6.48032 4.06679M16.3474 15.8046L16.3474 15.8046L16.3474 15.8046ZM16.3474 15.8046L16.3463 15.8057M16.3474 15.8046L16.3463 15.8057M16.3463 15.8057L16.3368 15.8144L16.3365 15.8147L16.3361 15.8151L16.3357 15.8155L16.3327 15.8182L16.3218 15.8281C16.3123 15.8368 16.2983 15.8493 16.2803 15.8653C16.2441 15.8973 16.1914 15.943 16.1241 15.9992C15.9896 16.1114 15.7969 16.265 15.5624 16.4324C15.0924 16.768 14.4584 17.1561 13.7886 17.381C13.4348 17.4998 13.106 17.5608 12.8109 17.5643H12.8109M16.3463 15.8057L12.8109 17.5643M12.8109 17.5643C10.6743 17.5903 8.32453 16.2022 5.82476 13.3889L5.82456 13.3887M12.8109 17.5643L5.82456 13.3887M5.82456 13.3887C3.31631 10.5828 2.20163 8.08536 2.46498 5.95874L2.465 5.95857M5.82456 13.3887L2.465 5.95857M2.465 5.95857C2.56477 5.14186 3.08404 4.31803 3.59209 3.6888C3.84474 3.3759 4.09175 3.11458 4.27677 2.9305C4.36924 2.83851 4.4461 2.76593 4.50029 2.71598C4.52738 2.691 4.54879 2.6717 4.56363 2.65846L4.58084 2.64322L4.5855 2.63914C4.5867 2.6381 4.58715 2.63772 4.58706 2.6378L4.58706 2.63781M2.465 5.95857L4.58706 2.63781M4.58706 2.63781L4.58816 2.63684M4.58706 2.63781L4.58816 2.63684M4.58816 2.63684L4.60003 2.62643L4.60033 2.62616M4.58816 2.63684L4.60033 2.62616M4.60033 2.62616C4.70428 2.53283 4.79745 2.47494 4.86879 2.45097C4.95233 2.42291 5.08374 2.45397 5.27933 2.62265C5.46948 2.78665 5.69431 3.05916 5.9519 3.4443L5.95168 3.44397L6.03527 3.38908M4.60033 2.62616L5.95214 3.44467M6.03527 3.38908L6.48032 4.06679M6.03527 3.38908L5.95214 3.44467M6.48032 4.06679C7.4326 5.50654 7.72163 6.51006 7.29303 6.89393L6.71811 7.41153M6.48032 4.06679L6.63782 7.47955C6.64349 7.47481 6.64906 7.47016 6.65453 7.4656C6.67801 7.446 6.6995 7.42806 6.71811 7.41153M5.95214 3.44467L6.39673 4.12168L6.39692 4.12196C6.87076 4.83836 7.17477 5.43934 7.3084 5.90395C7.44406 6.37562 7.39462 6.66869 7.22631 6.81944L7.22612 6.81961L6.6517 7.33676L6.71811 7.41153M5.95214 3.44467L16.5725 15.4603C16.5705 15.3981 16.5398 15.2852 16.4091 15.1044C16.279 14.9244 16.0552 14.6844 15.6806 14.3695L15.6803 14.3692L15.0645 13.8466C15.0644 13.8465 15.0643 13.8464 15.0642 13.8463C14.3301 13.2302 13.7953 12.8946 13.4084 12.726C13.0207 12.5571 12.7927 12.5608 12.6635 12.6042C12.61 12.6222 12.56 12.6514 12.5101 12.6959C12.51 12.696 12.5099 12.6961 12.5098 12.6962L11.9411 13.2151L11.9401 13.216L11.9401 13.216C11.9116 13.2412 11.8859 13.2672 11.8551 13.2982C11.8509 13.3025 11.8466 13.3068 11.8422 13.3113L11.8421 13.3113L11.8395 13.3139C11.6459 13.5086 11.309 13.8472 10.7987 14.0186C9.68697 14.392 8.4495 13.8103 7.03402 12.3418L7.034 12.3417C5.97869 11.2463 5.46386 10.2515 5.50175 9.30478C5.54349 8.26217 6.24573 7.67639 6.57064 7.40537L6.57364 7.40287C6.57963 7.39785 6.58542 7.39302 6.59101 7.38836C6.61428 7.36893 6.6342 7.3523 6.65151 7.33694L6.6512 7.33721L6.71811 7.41153M0.949289 5.73574C0.625233 8.35311 1.90076 11.2698 4.69779 14.3986L8.25822 7.97507C9.05557 7.26089 9.02255 6.26949 8.74249 5.38531C8.46259 4.50163 7.92702 3.69182 7.6656 3.29655L7.66427 3.29454L7.66409 3.29427L7.21727 2.61397L7.2168 2.61326L7.21452 2.60986C7.02749 2.33034 6.67935 1.81002 6.20092 1.41781C5.71886 1.02262 5.0901 0.746623 4.35507 0.993511C4.08479 1.08429 3.82242 1.2439 3.57495 1.46485C3.49059 1.53767 2.90472 2.05323 2.30547 2.82296C1.70608 3.59286 1.08463 4.62801 0.949289 5.73574Z" fill="#191632" stroke="#191632" stroke-width="0.2"/>
</svg>
