<svg width="20" height="20" viewBox="0 0 20 20" fill="none" xmlns="http://www.w3.org/2000/svg">
<path d="M17.0302 12.6796L17.0306 12.68L17.6468 13.203C17.6468 13.203 17.6469 13.2031 17.6469 13.2031C17.9703 13.475 18.3244 13.8004 18.6015 14.1732C18.8788 14.5461 19.084 14.9729 19.0991 15.4464C19.117 16.0073 18.8711 16.5153 18.3862 16.9539C18.2729 17.0594 16.9245 18.2935 15.3023 18.8384C14.8043 19.0056 14.3205 19.0941 13.8644 19.0995C13.8644 19.0995 13.8644 19.0995 13.8644 19.0995L13.8632 18.9995C11.2744 19.0311 8.55231 17.4607 5.77247 14.3321L17.0302 12.6796ZM17.0302 12.6796C16.477 12.2153 15.8365 11.7247 15.1734 11.4036C14.511 11.0828 13.8119 10.9243 13.1498 11.1467C12.9043 11.2291 12.6795 11.3608 12.4764 11.5419L12.4755 11.5427L11.9078 12.0606C11.9077 12.0608 11.9075 12.0609 11.9073 12.0611C11.8526 12.1098 11.8014 12.1613 11.7498 12.2132L11.7498 12.2132C11.6042 12.3597 11.4595 12.5025 11.2851 12.561C11.079 12.6303 10.7861 12.5741 10.4092 12.3582C10.0361 12.1444 9.59991 11.7851 9.11922 11.2863C8.17614 10.3076 8.0156 9.7101 8.02789 9.40149C8.0413 9.06537 8.26949 8.83988 8.56484 8.59357L8.56488 8.59353C8.60552 8.5596 8.64335 8.52792 8.67989 8.49558L8.6805 8.49503L9.25803 7.97524L17.0302 12.6796ZM5.52215 2.56172C5.50313 2.57795 3.57234 4.25528 3.36573 5.94645L5.52215 2.56172ZM5.52215 2.56172L5.53352 2.55175M5.52215 2.56172L5.53352 2.55175M5.53352 2.55175C5.6426 2.45381 5.74755 2.38621 5.83695 2.35618C6.11206 2.26377 6.51624 2.61294 7.03527 3.38908M5.53352 2.55175L7.48032 4.06679M17.3474 15.8046L17.3474 15.8046L17.3474 15.8046ZM17.3474 15.8046L17.3463 15.8057M17.3474 15.8046L17.3463 15.8057M17.3463 15.8057L17.3368 15.8144L17.3365 15.8147L17.3361 15.8151L17.3357 15.8155L17.3327 15.8182L17.3218 15.8281C17.3123 15.8368 17.2983 15.8493 17.2803 15.8653C17.2441 15.8973 17.1914 15.943 17.1241 15.9992C16.9896 16.1114 16.7969 16.265 16.5624 16.4324C16.0924 16.768 15.4584 17.1561 14.7886 17.381C14.4348 17.4998 14.106 17.5608 13.8109 17.5643H13.8109M17.3463 15.8057L13.8109 17.5643M13.8109 17.5643C11.6743 17.5903 9.32453 16.2022 6.82476 13.3889L6.82456 13.3887M13.8109 17.5643L6.82456 13.3887M6.82456 13.3887C4.31631 10.5828 3.20163 8.08536 3.46498 5.95874L3.465 5.95857M6.82456 13.3887L3.465 5.95857M3.465 5.95857C3.56477 5.14186 4.08404 4.31803 4.59209 3.6888C4.84474 3.3759 5.09175 3.11458 5.27677 2.9305C5.36924 2.83851 5.4461 2.76593 5.50029 2.71598C5.52738 2.691 5.54879 2.6717 5.56363 2.65846L5.58084 2.64322L5.5855 2.63914C5.5867 2.6381 5.58715 2.63772 5.58706 2.6378L5.58706 2.63781M3.465 5.95857L5.58706 2.63781M5.58706 2.63781L5.58816 2.63684M5.58706 2.63781L5.58816 2.63684M5.58816 2.63684L5.60003 2.62643L5.60033 2.62616M5.58816 2.63684L5.60033 2.62616M5.60033 2.62616C5.70428 2.53283 5.79745 2.47494 5.86879 2.45097C5.95233 2.42291 6.08374 2.45397 6.27933 2.62265C6.46948 2.78665 6.69431 3.05916 6.9519 3.4443L6.95168 3.44397L7.03527 3.38908M5.60033 2.62616L6.95214 3.44467M7.03527 3.38908L7.48032 4.06679M7.03527 3.38908L6.95214 3.44467M7.48032 4.06679C8.4326 5.50654 8.72163 6.51006 8.29303 6.89393L7.71811 7.41153M7.48032 4.06679L7.63782 7.47955C7.64349 7.47481 7.64906 7.47016 7.65453 7.4656C7.67801 7.446 7.6995 7.42806 7.71811 7.41153M6.95214 3.44467L7.39673 4.12168L7.39692 4.12196C7.87076 4.83836 8.17477 5.43934 8.3084 5.90395C8.44406 6.37562 8.39462 6.66869 8.22631 6.81944L8.22612 6.81961L7.6517 7.33676L7.71811 7.41153M6.95214 3.44467L17.5725 15.4603C17.5705 15.3981 17.5398 15.2852 17.4091 15.1044C17.279 14.9244 17.0552 14.6844 16.6806 14.3695L16.6803 14.3692L16.0645 13.8466C16.0644 13.8465 16.0643 13.8464 16.0642 13.8463C15.3301 13.2302 14.7953 12.8946 14.4084 12.726C14.0207 12.5571 13.7927 12.5608 13.6635 12.6042C13.61 12.6222 13.56 12.6514 13.5101 12.6959C13.51 12.696 13.5099 12.6961 13.5098 12.6962L12.9411 13.2151L12.9401 13.216L12.9401 13.216C12.9116 13.2412 12.8859 13.2672 12.8551 13.2982C12.8509 13.3025 12.8466 13.3068 12.8422 13.3113L12.8421 13.3113L12.8395 13.3139C12.6459 13.5086 12.309 13.8472 11.7987 14.0186C10.687 14.392 9.4495 13.8103 8.03402 12.3418L8.034 12.3417C6.97869 11.2463 6.46386 10.2515 6.50175 9.30478C6.54349 8.26217 7.24573 7.67639 7.57064 7.40537L7.57364 7.40287C7.57963 7.39785 7.58542 7.39302 7.59101 7.38836C7.61428 7.36893 7.6342 7.3523 7.65151 7.33694L7.6512 7.33721L7.71811 7.41153M1.94929 5.73574C1.62523 8.35311 2.90076 11.2698 5.69779 14.3986L9.25822 7.97507C10.0556 7.26089 10.0225 6.26949 9.74249 5.38531C9.46259 4.50163 8.92702 3.69182 8.6656 3.29655L8.66427 3.29454L8.66409 3.29427L8.21727 2.61397L8.2168 2.61326L8.21452 2.60986C8.02749 2.33034 7.67935 1.81002 7.20092 1.41781C6.71886 1.02262 6.0901 0.746623 5.35507 0.993511C5.08479 1.08429 4.82242 1.2439 4.57495 1.46485C4.49059 1.53767 3.90472 2.05323 3.30547 2.82296C2.70608 3.59286 2.08463 4.62801 1.94929 5.73574Z" fill="#191632" stroke="#191632" stroke-width="0.2"/>
</svg>
