<svg width="20" height="20" viewBox="0 0 20 20" fill="none" xmlns="http://www.w3.org/2000/svg">
<path fill-rule="evenodd" clip-rule="evenodd" d="M18.9225 1.07738C19.2479 1.40282 19.2479 1.93046 18.9225 2.25589L9.75585 11.4226C9.43041 11.748 8.90277 11.748 8.57733 11.4226C8.2519 11.0971 8.2519 10.5695 8.57733 10.2441L17.744 1.07738C18.0694 0.751946 18.5971 0.751946 18.9225 1.07738Z" fill="#191632"/>
<path fill-rule="evenodd" clip-rule="evenodd" d="M18.9225 1.07738C19.1489 1.30375 19.2256 1.63978 19.1198 1.94193L13.2865 18.6086C13.1736 18.9311 12.8753 19.152 12.5339 19.1659C12.1925 19.1799 11.8772 18.984 11.7384 18.6718L8.53525 11.4646L1.32814 8.26148C1.01591 8.12271 0.820021 7.8074 0.833949 7.466C0.847877 7.1246 1.0688 6.8263 1.3913 6.71342L18.058 0.88009C18.3601 0.774336 18.6961 0.851018 18.9225 1.07738ZM3.92582 7.59214L9.50504 10.0718C9.69357 10.1556 9.84431 10.3063 9.9281 10.4949L12.4078 16.0741L16.9749 3.02495L3.92582 7.59214Z" fill="#191632"/>
</svg>
