<svg width="20" height="20" viewBox="0 0 20 20" fill="none" xmlns="http://www.w3.org/2000/svg">
<path d="M16.6667 4.99999H13.3333V4.16666C13.3333 3.50362 13.0699 2.86773 12.6011 2.39889C12.1323 1.93005 11.4964 1.66666 10.8333 1.66666H9.16667C8.50363 1.66666 7.86774 1.93005 7.3989 2.39889C6.93006 2.86773 6.66667 3.50362 6.66667 4.16666V4.99999H3.33333C3.11232 4.99999 2.90036 5.08779 2.74408 5.24407C2.5878 5.40035 2.5 5.61231 2.5 5.83332C2.5 6.05434 2.5878 6.2663 2.74408 6.42258C2.90036 6.57886 3.11232 6.66666 3.33333 6.66666H4.16667V15.8333C4.16667 16.4964 4.43006 17.1322 4.8989 17.6011C5.36774 18.0699 6.00363 18.3333 6.66667 18.3333H13.3333C13.9964 18.3333 14.6323 18.0699 15.1011 17.6011C15.5699 17.1322 15.8333 16.4964 15.8333 15.8333V6.66666H16.6667C16.8877 6.66666 17.0996 6.57886 17.2559 6.42258C17.4122 6.2663 17.5 6.05434 17.5 5.83332C17.5 5.61231 17.4122 5.40035 17.2559 5.24407C17.0996 5.08779 16.8877 4.99999 16.6667 4.99999ZM8.33333 4.16666C8.33333 3.94564 8.42113 3.73368 8.57741 3.5774C8.73369 3.42112 8.94565 3.33332 9.16667 3.33332H10.8333C11.0543 3.33332 11.2663 3.42112 11.4226 3.5774C11.5789 3.73368 11.6667 3.94564 11.6667 4.16666V4.99999H8.33333V4.16666ZM14.1667 15.8333C14.1667 16.0543 14.0789 16.2663 13.9226 16.4226C13.7663 16.5789 13.5543 16.6667 13.3333 16.6667H6.66667C6.44565 16.6667 6.23369 16.5789 6.07741 16.4226C5.92113 16.2663 5.83333 16.0543 5.83333 15.8333V6.66666H14.1667V15.8333Z" fill="#191632"/>
</svg>
