<svg width="20" height="20" viewBox="0 0 20 20" fill="none" xmlns="http://www.w3.org/2000/svg">
<path fill-rule="evenodd" clip-rule="evenodd" d="M19.548 5.09236C19.8255 5.2352 20 5.52117 20 5.83333V14.1667C20 14.4788 19.8255 14.7648 19.548 14.9076C19.2704 15.0505 18.9363 15.0262 18.6823 14.8448L12.849 10.6781C12.63 10.5217 12.5 10.2691 12.5 10C12.5 9.73087 12.63 9.47831 12.849 9.32189L18.6823 5.15522C18.9363 4.97378 19.2704 4.94952 19.548 5.09236ZM14.7671 10L18.3333 12.5473V7.45266L14.7671 10Z" fill="#191632"/>
<path fill-rule="evenodd" clip-rule="evenodd" d="M2.5 5C2.03976 5 1.66667 5.37309 1.66667 5.83333V14.1667C1.66667 14.6269 2.03976 15 2.5 15H11.6667C12.1269 15 12.5 14.6269 12.5 14.1667V5.83333C12.5 5.37309 12.1269 5 11.6667 5H2.5ZM0 5.83333C0 4.45262 1.11929 3.33333 2.5 3.33333H11.6667C13.0474 3.33333 14.1667 4.45262 14.1667 5.83333V14.1667C14.1667 15.5474 13.0474 16.6667 11.6667 16.6667H2.5C1.11929 16.6667 0 15.5474 0 14.1667V5.83333Z" fill="#191632"/>
</svg>
