<svg width="20" height="20" viewBox="0 0 20 20" fill="none" xmlns="http://www.w3.org/2000/svg">
<path d="M6.66675 1.66667H13.3334C13.9965 1.66667 14.6323 1.93006 15.1012 2.3989C15.57 2.86774 15.8334 3.50363 15.8334 4.16667V17.5C15.834 17.6468 15.7958 17.7912 15.7226 17.9185C15.6494 18.0459 15.5439 18.1516 15.4168 18.225C15.2898 18.297 15.1461 18.3343 15.0001 18.3333C14.8541 18.3343 14.7104 18.297 14.5834 18.225L10.0001 15.575L5.41675 18.225C5.29007 18.2981 5.14637 18.3366 5.00009 18.3366C4.85381 18.3366 4.7101 18.2981 4.58342 18.225C4.45625 18.1516 4.35074 18.0459 4.27757 17.9185C4.2044 17.7912 4.16617 17.6468 4.16675 17.5V4.16667C4.16675 3.50363 4.43015 2.86774 4.89899 2.3989C5.36783 1.93006 6.00371 1.66667 6.66675 1.66667Z" fill="#191632"/>
</svg>
