<svg width="20" height="20" viewBox="0 0 20 20" fill="none" xmlns="http://www.w3.org/2000/svg">
<path d="M14.0481 1.95817C13.3531 1.95817 12.6649 2.09166 12.0227 2.35103C11.3806 2.61037 10.797 2.99064 10.3056 3.46991L10.0498 3.71929L9.79378 3.46978C8.80106 2.50206 7.45486 1.95859 6.05139 1.95859C4.64791 1.95859 3.30171 2.50206 2.30899 3.46978C1.31623 4.43753 0.758301 5.75031 0.758301 7.11938C0.758301 8.48845 1.31623 9.80123 2.30899 10.769L9.4495 17.7296C9.78113 18.0529 10.3184 18.0529 10.65 17.7296L17.7905 10.769C18.2822 10.2899 18.6722 9.72104 18.9384 9.09485C19.2046 8.4686 19.3416 7.79733 19.3416 7.11938C19.3416 6.44143 19.2046 5.77016 18.9384 5.14391C18.6723 4.51778 18.282 3.9487 17.7904 3.46964C17.2989 2.99044 16.7155 2.61035 16.0735 2.35103C15.4314 2.09166 14.7431 1.95817 14.0481 1.95817Z" fill="#191632"/>
</svg>
