<svg width="20" height="20" viewBox="0 0 20 20" fill="none" xmlns="http://www.w3.org/2000/svg">
<path fill-rule="evenodd" clip-rule="evenodd" d="M10.5117 2.67554C10.2108 2.44149 9.78943 2.44149 9.4885 2.67554L1.9885 8.50887C1.62521 8.79143 1.55977 9.31499 1.84233 9.67828C2.12488 10.0416 2.64845 10.107 3.01174 9.82446L3.33341 9.57427V16.3333C3.33341 17.4379 4.22885 18.3333 5.33341 18.3333H14.6667C15.7713 18.3333 16.6667 17.4379 16.6667 16.3333V9.59313C16.6667 9.5868 16.6667 9.58046 16.6667 9.57414L16.9885 9.82446C17.3518 10.107 17.8754 10.0416 18.1579 9.67828C18.4405 9.31499 18.375 8.79143 18.0117 8.50887L10.5117 2.67554Z" fill="#191632"/>
<path d="M8.3335 13.5C8.3335 12.9477 8.78121 12.5 9.3335 12.5H10.6668C11.2191 12.5 11.6668 12.9477 11.6668 13.5V16.6667H8.3335V13.5Z" fill="white"/>
</svg>
