<svg width="20" height="20" viewBox="0 0 20 20" fill="none" xmlns="http://www.w3.org/2000/svg">
<path d="M17.8571 2.85715H2.14286C0.959388 2.85715 0 3.81654 0 5.00001V15C0 16.1835 0.959388 17.1428 2.14286 17.1428H17.8571C19.0406 17.1428 20 16.1835 20 15V5.00001C20 3.81654 19.0406 2.85715 17.8571 2.85715ZM18.5714 11.1328L14.0764 6.63787C13.7975 6.35901 13.3453 6.35901 13.0664 6.63787L7.14287 12.5614L4.79071 10.2092C4.5118 9.93038 4.05962 9.93038 3.78072 10.2092L1.42856 12.5614V5.00001C1.42856 4.60551 1.74835 4.28571 2.14286 4.28571H17.8571C18.2516 4.28571 18.5714 4.60551 18.5714 5.00001V11.1328H18.5714Z" fill="#191632"/>
<path d="M6.4285 9.99997C7.61197 9.99997 8.57135 9.04058 8.57135 7.85711C8.57135 6.67365 7.61197 5.71426 6.4285 5.71426C5.24503 5.71426 4.28564 6.67365 4.28564 7.85711C4.28564 9.04058 5.24503 9.99997 6.4285 9.99997Z" fill="#191632"/>
</svg>
