<svg width="72" height="12" viewBox="0 0 72 12" fill="none" xmlns="http://www.w3.org/2000/svg">
<path d="M6.41218 1.42224L7.55475 3.49653C7.69757 3.74347 7.93561 3.89163 8.17364 3.99041L10.4112 4.48428C10.792 4.58306 10.9349 5.02755 10.6492 5.32388L9.12578 7.10184C8.93536 7.29939 8.84014 7.59571 8.88775 7.89204L9.12578 10.2627C9.17339 10.6578 8.79254 10.9047 8.45929 10.7565L6.36457 9.76878C6.12654 9.67 5.84089 9.67 5.60286 9.76878L3.50814 10.7565C3.17489 10.9047 2.79404 10.6084 2.84164 10.2627L3.07968 7.89204C3.12729 7.59571 3.03207 7.34878 2.84164 7.10184L1.31821 5.32388C1.08018 5.02755 1.223 4.58306 1.55625 4.48428L3.79379 3.99041C4.07943 3.94102 4.26986 3.74347 4.41268 3.49653L5.55525 1.42224C5.74568 1.12592 6.22175 1.12592 6.41218 1.42224Z" fill="#FFAB36"/>
<path d="M21.4122 1.42224L22.5547 3.49653C22.6976 3.74347 22.9356 3.89163 23.1736 3.99041L25.4112 4.48428C25.792 4.58306 25.9349 5.02755 25.6492 5.32388L24.1258 7.10184C23.9354 7.29939 23.8401 7.59571 23.8877 7.89204L24.1258 10.2627C24.1734 10.6578 23.7925 10.9047 23.4593 10.7565L21.3646 9.76878C21.1265 9.67 20.8409 9.67 20.6029 9.76878L18.5081 10.7565C18.1749 10.9047 17.794 10.6084 17.8416 10.2627L18.0797 7.89204C18.1273 7.59571 18.0321 7.34878 17.8416 7.10184L16.3182 5.32388C16.0802 5.02755 16.223 4.58306 16.5563 4.48428L18.7938 3.99041C19.0794 3.94102 19.2699 3.74347 19.4127 3.49653L20.5553 1.42224C20.7457 1.12592 21.2217 1.12592 21.4122 1.42224Z" fill="#FFAB36"/>
<path d="M36.4122 1.42224L37.5547 3.49653C37.6976 3.74347 37.9356 3.89163 38.1736 3.99041L40.4112 4.48428C40.792 4.58306 40.9349 5.02755 40.6492 5.32388L39.1258 7.10184C38.9354 7.29939 38.8401 7.59571 38.8877 7.89204L39.1258 10.2627C39.1734 10.6578 38.7925 10.9047 38.4593 10.7565L36.3646 9.76878C36.1265 9.67 35.8409 9.67 35.6029 9.76878L33.5081 10.7565C33.1749 10.9047 32.794 10.6084 32.8416 10.2627L33.0797 7.89204C33.1273 7.59571 33.0321 7.34878 32.8416 7.10184L31.3182 5.32388C31.0802 5.02755 31.223 4.58306 31.5563 4.48428L33.7938 3.99041C34.0794 3.94102 34.2699 3.74347 34.4127 3.49653L35.5553 1.42224C35.7457 1.12592 36.2217 1.12592 36.4122 1.42224Z" fill="#FFAB36"/>
<path d="M51.4122 1.42224L52.5547 3.49653C52.6976 3.74347 52.9356 3.89163 53.1736 3.99041L55.4112 4.48428C55.792 4.58306 55.9349 5.02755 55.6492 5.32388L54.1258 7.10184C53.9354 7.29939 53.8401 7.59571 53.8877 7.89204L54.1258 10.2627C54.1734 10.6578 53.7925 10.9047 53.4593 10.7565L51.3646 9.76878C51.1265 9.67 50.8409 9.67 50.6029 9.76878L48.5081 10.7565C48.1749 10.9047 47.794 10.6084 47.8416 10.2627L48.0797 7.89204C48.1273 7.59571 48.0321 7.34878 47.8416 7.10184L46.3182 5.32388C46.0802 5.02755 46.223 4.58306 46.5563 4.48428L48.7938 3.99041C49.0794 3.94102 49.2699 3.74347 49.4127 3.49653L50.5553 1.42224C50.7457 1.12592 51.2217 1.12592 51.4122 1.42224Z" fill="#FFAB36"/>
<path d="M66.4122 1.42224L67.5547 3.49653C67.6976 3.74347 67.9356 3.89163 68.1736 3.99041L70.4112 4.48428C70.792 4.58306 70.9349 5.02755 70.6492 5.32388L69.1258 7.10184C68.9354 7.29939 68.8401 7.59571 68.8877 7.89204L69.1258 10.2627C69.1734 10.6578 68.7925 10.9047 68.4593 10.7565L66.3646 9.76878C66.1265 9.67 65.8409 9.67 65.6029 9.76878L63.5081 10.7565C63.1749 10.9047 62.794 10.6084 62.8416 10.2627L63.0797 7.89204C63.1273 7.59571 63.0321 7.34878 62.8416 7.10184L61.3182 5.32388C61.0802 5.02755 61.223 4.58306 61.5563 4.48428L63.7938 3.99041C64.0794 3.94102 64.2699 3.74347 64.4127 3.49653L65.5553 1.42224C65.7457 1.12592 66.2217 1.12592 66.4122 1.42224Z" fill="#EBEBEB"/>
</svg>
