<svg width="20" height="20" viewBox="0 0 20 20" fill="none" xmlns="http://www.w3.org/2000/svg">
<path d="M12.4339 14.4796H7.56543V5.79526H12.4339V14.4796Z" fill="#FF5F00"/>
<path d="M7.87731 10.1367C7.87731 8.37506 8.70832 6.80583 10.0024 5.79455C9.05607 5.05505 7.86174 4.61368 6.56376 4.61368C3.4909 4.61368 1 7.08639 1 10.1367C1 13.187 3.4909 15.6598 6.56376 15.6598C7.86174 15.6598 9.05607 15.2184 10.0024 14.4789C8.70832 13.4676 7.87731 11.8984 7.87731 10.1367Z" fill="#EB001B"/>
<path d="M18.9998 10.1367C18.9998 13.187 16.5089 15.6598 13.4361 15.6598C12.1381 15.6598 10.9438 15.2184 9.99707 14.4789C11.2915 13.4676 12.1225 11.8984 12.1225 10.1367C12.1225 8.37506 11.2915 6.80583 9.99707 5.79455C10.9438 5.05505 12.1381 4.61368 13.4361 4.61368C16.5089 4.61368 18.9998 7.08639 18.9998 10.1367Z" fill="#F79E1B"/>
</svg>
