<svg width="20" height="20" viewBox="0 0 20 20" fill="none" xmlns="http://www.w3.org/2000/svg">
<path fill-rule="evenodd" clip-rule="evenodd" d="M7.52491 17.4577L7.80107 15.6965L7.18589 15.682H4.24829L6.28982 2.6851C6.29618 2.64574 6.31674 2.60921 6.34676 2.58322C6.37694 2.55723 6.4154 2.54297 6.45563 2.54297H11.4089C13.0534 2.54297 14.1882 2.88648 14.7806 3.5646C15.0584 3.88272 15.2353 4.21524 15.3209 4.58103C15.4107 4.96494 15.4122 5.42356 15.3246 5.98301L15.3183 6.0237V6.38222L15.5961 6.54024C15.8299 6.66484 16.0158 6.80741 16.1584 6.97063C16.396 7.24271 16.5497 7.58845 16.6146 7.9982C16.6817 8.41969 16.6596 8.92137 16.5497 9.48929C16.4229 10.1425 16.218 10.7114 15.9413 11.1769C15.6869 11.6058 15.3626 11.9616 14.9776 12.2373C14.61 12.4992 14.1734 12.6981 13.6797 12.8254C13.2012 12.9504 12.6556 13.0135 12.0573 13.0135H11.6719C11.3963 13.0135 11.1286 13.1132 10.9184 13.2919C10.7076 13.4742 10.5683 13.7234 10.5255 13.996L10.4964 14.1546L10.0084 17.259L9.98637 17.3729C9.98045 17.409 9.97039 17.4269 9.9556 17.4391C9.94243 17.4503 9.9235 17.4577 9.90501 17.4577H7.52491Z" fill="white"/>
<path fill-rule="evenodd" clip-rule="evenodd" d="M15.8593 6.06506C15.8447 6.15996 15.8276 6.25694 15.8087 6.3566C15.1555 9.72402 12.9207 10.8873 10.0665 10.8873H8.61323C8.26415 10.8873 7.96995 11.1417 7.91566 11.4875L6.96087 17.5684C6.92552 17.7955 7.09976 18 7.32785 18H9.90542C10.2106 18 10.4699 17.7774 10.5179 17.4751L10.5432 17.3437L11.0285 14.2515L11.0597 14.0819C11.1072 13.7786 11.3671 13.5558 11.6723 13.5558H12.0577C14.555 13.5558 16.51 12.5379 17.0814 9.59199C17.32 8.36139 17.1965 7.33382 16.5649 6.61115C16.3738 6.39328 16.1366 6.21239 15.8593 6.06506Z" fill="#ACD3EB"/>
<path fill-rule="evenodd" clip-rule="evenodd" d="M15.1757 5.79155C15.0759 5.76229 14.9729 5.73585 14.8673 5.71194C14.7611 5.68863 14.6524 5.66798 14.5404 5.64986C14.1486 5.5863 13.7192 5.55615 13.2593 5.55615H9.37698C9.28128 5.55615 9.19046 5.57784 9.10925 5.61704C8.93013 5.70348 8.79715 5.87368 8.76491 6.08204L7.93895 11.3344L7.91528 11.4875C7.96957 11.1418 8.26377 10.8874 8.61285 10.8874H10.0661C12.9203 10.8874 15.1551 9.72347 15.8083 6.35665C15.8279 6.25699 15.8443 6.16001 15.8589 6.06511C15.6937 5.97704 15.5147 5.90175 15.322 5.83759C15.2744 5.8217 15.2253 5.8064 15.1757 5.79155Z" fill="#E6F2F9"/>
<path fill-rule="evenodd" clip-rule="evenodd" d="M8.76508 6.08207C8.79733 5.8737 8.9303 5.70351 9.10943 5.61766C9.19123 5.57831 9.28145 5.55662 9.37715 5.55662H13.2595C13.7194 5.55662 14.1488 5.58692 14.5406 5.65049C14.6526 5.66846 14.7613 5.68925 14.8675 5.71256C14.9731 5.73633 15.076 5.76291 15.1759 5.79202C15.2254 5.80687 15.2745 5.82232 15.3226 5.83761C15.5153 5.90177 15.6945 5.97766 15.8597 6.06514C16.054 4.82074 15.8581 3.97346 15.188 3.20623C14.4492 2.36148 13.1159 2 11.4097 2H6.45627C6.10778 2 5.81048 2.25441 5.75663 2.60074L3.69351 15.7314C3.65284 15.9911 3.85237 16.2255 4.1133 16.2255H7.1713L8.76508 6.08207Z" fill="white"/>
</svg>
