<svg width="20" height="20" viewBox="0 0 20 20" fill="none" xmlns="http://www.w3.org/2000/svg">
<path d="M8.66678 12.9883H7.04663L8.05999 7.13245H9.68004L8.66678 12.9883Z" fill="#15195A"/>
<path d="M14.5397 7.27555C14.2201 7.15707 13.7133 7.02625 13.0865 7.02625C11.4866 7.02625 10.3599 7.8236 10.353 8.96357C10.3397 9.80464 11.1597 10.2718 11.7729 10.5522C12.3997 10.8388 12.6128 11.0258 12.6128 11.2813C12.6064 11.6736 12.1063 11.8544 11.6399 11.8544C10.993 11.8544 10.6464 11.7612 10.1197 11.5429L9.9064 11.4494L9.67969 12.7639C10.0597 12.9257 10.7598 13.0692 11.4866 13.0755C13.1866 13.0755 14.2933 12.2905 14.3064 11.0757C14.3129 10.4091 13.8799 9.89829 12.9465 9.4809C12.3798 9.21296 12.0328 9.03229 12.0328 8.75815C12.0394 8.50892 12.3263 8.25365 12.966 8.25365C13.4927 8.24115 13.8796 8.35947 14.1728 8.47787L14.3193 8.54006L14.5397 7.27555Z" fill="#15195A"/>
<path fill-rule="evenodd" clip-rule="evenodd" d="M17.4396 7.13245H18.6928L19.9998 12.9882H18.4997C18.4997 12.9882 18.3529 12.3154 18.3064 12.1098H16.2263L15.8862 12.9882H14.1863L16.5928 7.61831C16.7595 7.23826 17.0531 7.13245 17.4396 7.13245ZM17.3398 9.27535C17.3398 9.27535 16.8264 10.5774 16.693 10.9138H18.0397C17.973 10.621 17.6662 9.2193 17.6662 9.2193L17.553 8.71472C17.5053 8.84465 17.4364 9.02329 17.3899 9.14378C17.3583 9.22545 17.3371 9.2804 17.3398 9.27535Z" fill="#15195A"/>
<path fill-rule="evenodd" clip-rule="evenodd" d="M4.10699 11.1255L5.69364 7.13242H7.40682L4.86023 12.9821H3.14697L1.70299 7.89406C1.20467 7.62174 0.635916 7.40273 0 7.25075L0.0266672 7.13243H2.63332C2.98664 7.14477 3.27334 7.25067 3.36663 7.62467L3.93247 10.3121C3.93285 10.3133 3.93323 10.3145 3.93361 10.3157L4.10699 11.1255Z" fill="#15195A"/>
</svg>
